<?xml version="1.0" standalone="no"?><!DOCTYPE svg PUBLIC "-//W3C//DTD SVG 1.1//EN" "http://www.w3.org/Graphics/SVG/1.1/DTD/svg11.dtd"><svg t="1566786097590" class="icon" viewBox="0 0 1024 1024" version="1.1" xmlns="http://www.w3.org/2000/svg" p-id="29907" xmlns:xlink="http://www.w3.org/1999/xlink" width="16" height="16"><defs><style type="text/css"></style></defs><path d="M958.17728 962.6624h-217.10734222c161.03424-84.74624 271.13699555-256.04778667 271.13699555-453.5808 0-281.72060445-223.95107555-510.10218667-500.20920888-510.10218667s-500.20920889 228.37930667-500.2092089 510.10218667c0 275.07143111 213.50513778 499.29102222 480.73841778 509.72103111 1.43701333 0.22869333 2.89905778 0.38001778 4.39978667 0.38001778h461.25283555c15.54204445 0 28.25898667-12.71808 28.25898667-28.25898667s-12.71921778-28.25898667-28.26012444-28.25898667zM770.65557333 405.93294222c56.96853333 0 103.14979555 46.1824 103.14979556 103.14979556s-46.1824 103.14979555-103.14979556 103.14979555-103.14979555-46.1824-103.14979555-103.14979555 46.1824-103.14979555 103.14979555-103.14979556zM512 157.00309333c56.96853333 0 103.14979555 46.1824 103.14979555 103.14979556s-46.1824 103.14979555-103.14979555 103.14979556-103.14979555-46.1824-103.14979555-103.14979556c0-56.96853333 46.1824-103.14979555 103.14979555-103.14979556zM258.04458667 610.58389333c-56.96853333 0-103.14979555-46.1824-103.14979556-103.14979555s46.1824-103.14979555 103.14979556-103.14979556c56.96853333 0 103.14979555 46.1824 103.14979555 103.14979556 0 56.96853333-46.18353778 103.14979555-103.14979555 103.14979555zM407.11168 781.47242667c0-56.96853333 46.1824-103.14979555 103.14979555-103.14979556s103.14979555 46.1824 103.14979556 103.14979556-46.1824 103.14979555-103.14979556 103.14979555-103.14979555-46.1824-103.14979555-103.14979555z" fill="#d3217b" p-id="29908"></path></svg>