<?xml version="1.0" standalone="no"?><!DOCTYPE svg PUBLIC "-//W3C//DTD SVG 1.1//EN" "http://www.w3.org/Graphics/SVG/1.1/DTD/svg11.dtd"><svg t="1566786699677" class="icon" viewBox="0 0 1024 1024" version="1.1" xmlns="http://www.w3.org/2000/svg" p-id="44372" xmlns:xlink="http://www.w3.org/1999/xlink" width="32" height="32"><defs><style type="text/css"></style></defs><path d="M206.70864724 1006.89335097c-7.14131795 0-13.74703814-3.21359357-18.38889473-8.56958237-4.64185661-5.35598881-6.42718576-12.49730677-5.35598883-19.63862473l56.05934813-327.07237273L1.39574867 420.2340607c-6.60571881-6.42718576-8.9266471-15.88943339-6.07011964-24.63754743s10.35491153-14.99676813 19.46009168-16.42503117l328.32210411-47.66830017 146.7540891-297.61443564c4.10625744-8.21251628 12.49730677-13.38997203 21.60248692-13.38997064s17.49622948 5.17745577 21.60248831 13.38997064L679.82097824 331.50318193l328.50063578 47.66830017c9.10518015 1.24973136 16.60356421 7.67691711 19.46009305 16.42503117 2.85652747 8.74811542 0.53559916 18.21036169-6.07012101 24.63754743L784.08422293 651.79130418l56.05934812 327.07237274c1.6067961 9.10518015-2.14239525 18.21036169-9.64077932 23.5663505s-17.13916337 6.07012102-25.35167964 1.78532916l-293.68671125-154.43100622-293.68670985 154.43100622c-3.39212662 1.78532915-7.14131795 2.6779944-11.06904375 2.67799439zM69.95240357 419.69846293L281.69248788 626.08255843c5.71305491 5.53452187 8.21251628 13.5685051 6.96278492 21.24542082l-49.98922709 291.36578295 261.72931279-137.4703759c6.96278491-3.74919273 15.35383423-3.74919273 22.31661913 0l261.7293114 137.64890895-49.98922709-291.36578293c-1.24973136-7.85545018 1.24973136-15.71090034 6.96278491-21.24542084l211.74008432-206.38409689-292.61551293-42.49084301c-7.85545018-1.07119831-14.63970202-6.07012102-18.03182864-13.21143761l-130.86465571-265.12143802-130.86465569 265.12143802c-3.57065967 7.14131795-10.35491153 11.96170762-18.03182865 13.21143761l-292.79404598 42.31231135z m0 0" p-id="44373" fill="#ffffff"></path></svg>