<?xml version="1.0" standalone="no"?><!DOCTYPE svg PUBLIC "-//W3C//DTD SVG 1.1//EN" "http://www.w3.org/Graphics/SVG/1.1/DTD/svg11.dtd"><svg t="1566786571837" class="icon" viewBox="0 0 1024 1024" version="1.1" xmlns="http://www.w3.org/2000/svg" p-id="39032" xmlns:xlink="http://www.w3.org/1999/xlink" width="32" height="32"><defs><style type="text/css"></style></defs><path d="M85.333333 245.290667A53.205333 53.205333 0 0 1 138.709333 192h746.581334A53.354667 53.354667 0 0 1 938.666667 245.290667v576.085333A53.205333 53.205333 0 0 1 885.290667 874.666667H138.709333A53.354667 53.354667 0 0 1 85.333333 821.376V245.290667z m42.666667 16.213333v543.68C128 820.053333 139.946667 832 154.666667 832h714.666666c14.613333 0 26.666667-12.010667 26.666667-26.816V261.482667C896 246.613333 884.053333 234.666667 869.333333 234.666667H154.666667C140.053333 234.666667 128 246.677333 128 261.482667z" fill="#000000" p-id="39033"></path><path d="M128 341.333333h768v85.333334H128z" fill="#000000" p-id="39034"></path><path d="M192 640l426.666667 0 0 42.666667-426.666667 0 0-42.666667Z" fill="#000000" p-id="39035"></path><path d="M192 533.333333l213.333333 0 0 42.666667-213.333333 0 0-42.666667Z" fill="#000000" p-id="39036"></path></svg>