<?xml version="1.0" standalone="no"?><!DOCTYPE svg PUBLIC "-//W3C//DTD SVG 1.1//EN" "http://www.w3.org/Graphics/SVG/1.1/DTD/svg11.dtd"><svg t="1566786423621" class="icon" viewBox="0 0 1024 1024" version="1.1" xmlns="http://www.w3.org/2000/svg" p-id="34190" width="32" height="32" xmlns:xlink="http://www.w3.org/1999/xlink"><defs><style type="text/css"></style></defs><path d="M611.423407 840.795445l-39.791262 0c-5.242398 0-9.519818 4.27742-9.519818 9.519818 0 27.649733-22.51683 50.220798-50.167586 50.220798-27.649733 0-50.220798-22.571065-50.220798-50.220798 0-5.242398-4.27742-9.519818-9.519818-9.519818L412.468123 840.795445c-5.242398 0-9.519818 4.27742-9.519818 9.519818 0 59.084677 49.948599 109.051695 109.051695 109.051695 59.104119 0 108.998483-49.948599 108.998483-109.051695C620.943224 845.018629 616.72004 840.795445 611.423407 840.795445L611.423407 840.795445zM919.522484 790.627858c0-3.749394-0.747014-7.427156-2.238994-11.067057-8.665357-63.744813-43.960211-120.756271-97.275487-157.234067L820.008003 452.312596c0-128.237663-79.945797-243.334028-199.575408-288.312428-4.913916-55.354725-52.296063-99.369172-108.452038-99.369172-56.154951 0-103.536075 43.959188-108.505249 99.313913-119.610168 45.052079-199.555965 160.129001-199.555965 288.386106l0 170.013115c-53.3163 36.532031-88.556918 93.433996-97.220229 157.180855-2.14792 5.296633-2.730181 10.903328-1.710968 16.418948-0.381693 4.805446-0.528026 9.683547-0.528026 14.598486 0 5.242398 4.27742 9.519818 9.519818 9.519818l796.040125 0c5.242398 0 9.519818-4.27742 9.519818-9.519818 0-4.91494-0.217964-9.737782-0.528026-14.543228C919.249261 794.487769 919.522484 792.612049 919.522484 790.627858L919.522484 790.627858zM569.44841 209.907731c13.323447 3.094478 26.211988 7.280824 38.298258 12.359492 91.778286 38.298258 153.376203 130.750903 153.376203 230.064816l0 197.917652c0 3.585665 2.093684 6.89913 5.242398 8.555863 42.249243 21.023826 73.375148 57.921177 86.900186 102.408391L170.607656 761.213945c13.525038-44.487214 44.650943-81.402985 86.900186-102.408391 3.203972-1.601474 5.296633-4.91494 5.296633-8.555863l0-197.917652c0-114.222461 80.600713-216.21232 191.674461-242.424308 4.27742-1.019213 7.317663-4.860704 7.317663-9.247618l0-26.957978c0-27.213805 22.99062-50.167586 50.221822-50.167586 27.157523 0 50.166563 22.99062 50.166563 50.167586l0 26.903743C562.112328 205.047026 565.169967 208.833259 569.44841 209.907731L569.44841 209.907731zM569.44841 209.907731" p-id="34191" fill="#ffffff"></path></svg>