<?xml version="1.0" standalone="no"?><!DOCTYPE svg PUBLIC "-//W3C//DTD SVG 1.1//EN" "http://www.w3.org/Graphics/SVG/1.1/DTD/svg11.dtd"><svg t="1566787020315" class="icon" viewBox="0 0 1396 1024" version="1.1" xmlns="http://www.w3.org/2000/svg" p-id="51445" xmlns:xlink="http://www.w3.org/1999/xlink" width="43.625" height="32"><defs><style type="text/css"></style></defs><path d="M1197.381818 0H198.935273C89.088 0.139636 0.139636 89.832727 0 200.564364V823.389091C0.139636 934.167273 89.134545 1023.860364 198.935273 1024h998.4c109.847273-0.139636 198.842182-89.832727 198.935272-200.564364v-351.138909a44.171636 44.171636 0 0 0-21.08509-40.122182 43.380364 43.380364 0 0 0-45.056 0 44.171636 44.171636 0 0 0-21.131637 40.122182v351.138909a112.221091 112.221091 0 0 1-111.616 112.593455H198.935273a112.221091 112.221091 0 0 1-111.662546-112.593455V200.610909A112.221091 112.221091 0 0 1 198.935273 87.970909h998.4a112.221091 112.221091 0 0 1 111.709091 112.593455v44.311272H206.475636a43.613091 43.613091 0 0 0-39.796363 21.317819 44.357818 44.357818 0 0 0 0 45.381818c8.378182 13.963636 23.645091 22.155636 39.796363 21.271272h1146.135273A43.892364 43.892364 0 0 0 1396.363636 288.814545V200.564364C1396.224 89.786182 1307.182545 0.093091 1197.381818 0z" p-id="51446" fill="#000000"></path><path d="M512.930909 400.430545L418.909091 656.802909 325.026909 400.430545c-9.262545-21.922909-35.607273-33.28-59.810909-25.739636-24.203636 7.540364-37.655273 31.278545-30.533818 53.899636l139.077818 379.438546c6.609455 17.826909 24.762182 29.789091 45.195636 29.789091 20.433455 0 38.586182-11.962182 45.149091-29.789091l139.170909-379.298909c7.074909-22.621091-6.423273-46.359273-30.580363-53.899637-24.203636-7.540364-50.548364 3.816727-59.810909 25.739637l0.093091-0.139637zM698.181818 416.954182v376.273454a41.518545 41.518545 0 0 0 22.528 38.539637c14.754909 8.052364 33.186909 8.052364 47.941818 0a41.518545 41.518545 0 0 0 22.528-38.539637V416.954182a41.518545 41.518545 0 0 0-22.528-38.539637 50.548364 50.548364 0 0 0-47.941818 0 41.518545 41.518545 0 0 0-22.528 38.539637zM1024.465455 372.363636H882.967273c-24.901818 0-45.102545 19.083636-45.102546 42.542546v378.088727c-0.884364 15.732364 7.493818 30.626909 21.829818 38.725818 14.289455 8.145455 32.162909 8.145455 46.452364 0a41.984 41.984 0 0 0 21.783273-38.725818v-157.696h96.395636c3.072 0 6.097455-0.279273 9.122909-0.837818C1105.92 629.899636 1163.636364 573.44 1163.636364 503.854545c0-69.538909-57.576727-126.045091-130.141091-130.56a47.941818 47.941818 0 0 0-9.076364-0.930909z m-1.070546 186.042182H930.909091V465.454545h92.439273c26.065455 0 47.197091 20.852364 47.197091 46.545455s-21.131636 46.545455-47.197091 46.545455v-0.139637z" p-id="51447" fill="#000000"></path></svg>