<?xml version="1.0" standalone="no"?><!DOCTYPE svg PUBLIC "-//W3C//DTD SVG 1.1//EN" "http://www.w3.org/Graphics/SVG/1.1/DTD/svg11.dtd"><svg t="1566787397226" class="icon" viewBox="0 0 1157 1024" version="1.1" xmlns="http://www.w3.org/2000/svg" p-id="53440" xmlns:xlink="http://www.w3.org/1999/xlink" width="36.15625" height="32"><defs><style type="text/css"></style></defs><path d="M1155.845619 307.835609A347.976521 347.976521 0 0 0 939.456858 24.722549a333.621493 333.621493 0 0 0-360.470713 73.901813A333.887327 333.887327 0 0 0 289.493072 4.253342 345.584017 345.584017 0 0 0 3.45584 292.417245c0 8.24085-2.126671 16.481699-2.658338 24.456715a330.697321 330.697321 0 0 0 98.624361 254.668837l421.080833 427.992513a81.345161 81.345161 0 0 0 58.217615 24.456715A81.345161 81.345161 0 0 0 638.001262 999.53531l421.878334-428.790015a327.773148 327.773148 0 0 0 97.561026-237.123802q-0.265834-12.760025-1.595003-25.785884z m-111.916055 200.438729l-194.856218-199.641228A26.583386 26.583386 0 1 0 811.059104 345.584017l196.982889 201.767899-113.511057 115.106061L638.001262 401.409127a26.583386 26.583386 0 0 0-38.014242 37.21674l255.732172 262.112185-126.536917 128.397754-338.140668-345.584016a26.583386 26.583386 0 0 0-38.014242 37.21674l340.001505 346.115684-93.839352 95.168522a28.444223 28.444223 0 0 1-20.469207 8.506683 28.444223 28.444223 0 0 1-20.469207-8.506683L137.436105 535.123558a277.796383 277.796383 0 0 1-83.471832-212.667087c0-6.91168 0-13.823361 2.392505-21.000875a292.417245 292.417245 0 0 1 241.377144-244.56715A283.644728 283.644728 0 0 1 342.39401 53.166772 286.5689 286.5689 0 0 1 558.251104 154.449472l19.671706 22.330044 19.937539-22.06421a280.188887 280.188887 0 0 1 321.127302-79.750158 294.278082 294.278082 0 0 1 183.159529 239.250473q0 10.899188 1.329169 21.798377a268.758031 268.758031 0 0 1-59.546785 172.26034z" fill="#231816" p-id="53441"></path></svg>