<?xml version="1.0" standalone="no"?><!DOCTYPE svg PUBLIC "-//W3C//DTD SVG 1.1//EN" "http://www.w3.org/Graphics/SVG/1.1/DTD/svg11.dtd"><svg t="1566786752857" class="icon" viewBox="0 0 1024 1024" version="1.1" xmlns="http://www.w3.org/2000/svg" p-id="46607" xmlns:xlink="http://www.w3.org/1999/xlink" width="32" height="32"><defs><style type="text/css"></style></defs><path d="M483.983 47.85c-250.9 0-453.95 176.634-453.95 394.533 0 133.667 77.583 252.533 194.783 325.134v122.166c0 16.5 11.55 26.4 24.767 26.4 4.95 0 9.917-1.633 13.2-3.3l123.801-82.533c31.383 6.601 62.734 8.267 95.75 8.267 250.9 0 453.934-176.634 453.934-394.5 1.67-219.534-201.363-396.166-452.284-396.166zM483.983 772.486c-28.067 0-56.133-3.3-84.183-8.267l-13.217-3.3c-8.25-1.633-16.5 0-24.767 4.966l-11.534 8.234-59.434 39.633v-64.367c0-11.567-6.601-23.134-16.5-28.067l-16.516-9.9c-102.35-61.1-163.417-161.766-163.417-267.401 0-181.567 173.333-328.467 387.917-328.467 214.601 0 387.9 146.9 387.9 328.467 1.67 179.9-173.297 328.467-386.25 328.467zM226.466 453.917c0 30.1 24.383 54.483 54.483 54.483 30.083 0 54.467-24.383 54.467-54.483 0-30.067-24.383-54.467-54.467-54.467-30.1 0-54.483 24.4-54.483 54.467zM432.817 453.917c0 30.1 24.383 54.483 54.467 54.483s54.483-24.383 54.483-54.483c0-30.067-24.4-54.467-54.483-54.467s-54.467 24.4-54.467 54.467zM632.537 453.917c0 30.1 24.4 54.483 54.467 54.483 30.1 0 54.5-24.383 54.5-54.483 0-30.067-24.4-54.467-54.5-54.467-30.067 0-54.467 24.4-54.467 54.467zM945.203 539.187c-0.973-1.229-1.997-2.406-3.004-3.635-7.1 26.965-17.237 52.941-30.003 77.602 0.529 1.195 1.195 2.338 1.707 3.533 8.636 19.866 13.329 41.335 13.329 63.727 0 59.375-34.304 115.934-91.802 150.238l-9.267 5.564c-5.564 2.765-9.301 9.267-9.301 15.77v36.164l-33.365-22.272-6.502-4.625c-4.625-2.765-9.267-3.703-13.892-2.765l-7.407 1.826c-15.804 2.833-31.573 4.625-47.292 4.625-37.803 0-73.404-8.363-104.465-22.938-30.839 7.202-62.839 11.742-95.795 13.295 51.627 44.493 122.675 72.004 201.165 72.004 20.804 0 40.533-1.041 60.262-5.171l77.926 51.934c2.065 1.041 5.171 2.065 8.26 2.065 8.329 0 15.599-6.229 15.599-16.606v-76.902c73.762-45.705 122.607-120.508 122.607-204.629 0-51.405-17.954-99.174-48.759-138.803z" p-id="46608" fill="#000000"></path></svg>