<?xml version="1.0" standalone="no"?><!DOCTYPE svg PUBLIC "-//W3C//DTD SVG 1.1//EN" "http://www.w3.org/Graphics/SVG/1.1/DTD/svg11.dtd"><svg t="1566787409207" class="icon" viewBox="0 0 1024 1024" version="1.1" xmlns="http://www.w3.org/2000/svg" p-id="54196" xmlns:xlink="http://www.w3.org/1999/xlink" width="32" height="32"><defs><style type="text/css"></style></defs><path d="M512 0C307.2 0 132.267 140.8 76.8 337.067 29.867 366.933 0 422.4 0 490.667c0 98.133 59.733 179.2 157.867 179.2 21.333 0 38.4-17.067 38.4-38.4V354.133c0-17.066-12.8-34.133-29.867-38.4C226.133 174.933 358.4 76.8 512 76.8c153.6 0 285.867 98.133 345.6 238.933-17.067 4.267-29.867 17.067-29.867 38.4v277.334c0 21.333 17.067 38.4 38.4 38.4 8.534 0 17.067 0 25.6-4.267-12.8 72.533-42.666 128-76.8 166.4-21.333 25.6-38.4 42.667-55.466 51.2-8.534 4.267-12.8 8.533-17.067 12.8-4.267 0-4.267 0-4.267 4.267H665.6c-12.8-42.667-59.733-72.534-115.2-72.534-64 0-119.467 42.667-119.467 98.134 0 55.466 51.2 98.133 119.467 98.133 55.467 0 98.133-29.867 115.2-72.533h76.8c12.8 0 17.067-4.267 25.6-8.534 8.533-4.266 17.067-8.533 25.6-17.066 21.333-12.8 42.667-34.134 68.267-59.734 42.666-51.2 81.066-123.733 89.6-221.866C998.4 614.4 1024 558.933 1024 494.933c0-68.266-29.867-123.733-76.8-153.6C891.733 140.8 716.8 0 512 0z" fill="#000000" p-id="54197"></path></svg>