<?xml version="1.0" standalone="no"?><!DOCTYPE svg PUBLIC "-//W3C//DTD SVG 1.1//EN" "http://www.w3.org/Graphics/SVG/1.1/DTD/svg11.dtd"><svg t="1566786736095" class="icon" viewBox="0 0 1024 1024" version="1.1" xmlns="http://www.w3.org/2000/svg" p-id="45772" xmlns:xlink="http://www.w3.org/1999/xlink" width="32" height="32"><defs><style type="text/css"></style></defs><path d="M202.4 824c-5.2 0-10.4-2-14.3-6.1-81-85-125.6-196.5-125.6-313.9 0-250.9 204.1-455 455-455 70.5 0 138 15.7 200.8 46.6 9.8 4.8 13.8 16.7 9 26.5-4.8 9.8-16.6 13.8-26.5 9-57.3-28.2-118.9-42.5-183.3-42.5C288.4 88.6 102.1 275 102.1 504c0 107.2 40.7 209 114.7 286.6 7.5 7.9 7.2 20.4-0.7 28-3.8 3.6-8.8 5.4-13.7 5.4zM517.5 959c-96.5 0-188.7-29.8-266.6-86.2-8.8-6.4-10.8-18.8-4.4-27.6s18.8-10.8 27.6-4.4c71.1 51.5 155.3 78.7 243.4 78.7 229.1 0 415.4-186.4 415.4-415.4 0-102-37.3-200.1-105.1-276.2-7.3-8.2-6.5-20.7 1.6-27.9 8.1-7.3 20.7-6.5 27.9 1.6 74.2 83.3 115.1 190.8 115.1 302.5 0.1 250.8-204 454.9-454.9 454.9z" p-id="45773" fill="#000000"></path><path d="M754.9 147.9m-59.3 0a59.3 59.3 0 1 0 118.6 0 59.3 59.3 0 1 0-118.6 0Z" p-id="45774" fill="#000000"></path><path d="M280.1 860.1m-59.3 0a59.3 59.3 0 1 0 118.6 0 59.3 59.3 0 1 0-118.6 0Z" p-id="45775" fill="#000000"></path></svg>