<?xml version="1.0" standalone="no"?><!DOCTYPE svg PUBLIC "-//W3C//DTD SVG 1.1//EN" "http://www.w3.org/Graphics/SVG/1.1/DTD/svg11.dtd"><svg t="1566787438106" class="icon" viewBox="0 0 1024 1024" version="1.1" xmlns="http://www.w3.org/2000/svg" p-id="55068" xmlns:xlink="http://www.w3.org/1999/xlink" width="32" height="32"><defs><style type="text/css"></style></defs><path d="M1015.229907 1014.429907c-12.760125 12.760125-25.520249 12.760125-38.280374 0l-165.88162-178.641745 38.280374-38.280374 165.88162 178.641745c6.380062 6.380062 6.380062 25.520249 0 38.280374z" fill="#000000" p-id="55069"></path><path d="M651.566355 376.423676c-133.981308 0-248.82243 108.461059-248.82243 242.442368 0 133.981308 108.461059 242.442368 248.82243 242.442367 133.981308 0 248.82243-108.461059 248.82243-242.442367 0-133.981308-114.841121-242.442368-248.82243-242.442368z m0 421.084112c-95.700935 0-178.641745-76.560748-178.641744-172.261682S555.865421 446.604361 651.566355 446.604361C753.647352 446.604361 830.2081 523.165109 830.2081 618.866044s-76.560748 178.641745-178.641745 178.641744zM160.301558 784.747664v-31.900312H383.603738c6.380062 12.760125 12.760125 19.140187 25.52025 31.900312H160.301558z" fill="#000000" p-id="55070"></path><path d="M447.404361 803.88785H147.541433v-63.800623h248.82243l6.380062 6.380063c6.380062 6.380062 12.760125 19.140187 19.140187 25.520249l25.520249 31.900311z" fill="#000000" p-id="55071"></path><path d="M160.301558 657.146417v-38.280373h204.161993v38.280373H160.301558z" fill="#000000" p-id="55072"></path><path d="M364.463551 669.906542H147.541433v-63.800623H383.603738v63.800623h-19.140187zM179.441745 638.006231h172.261682-172.261682z" fill="#000000" p-id="55073"></path><path d="M160.301558 357.283489H383.603738v31.900312H160.301558z" fill="#000000" p-id="55074"></path><path d="M147.541433 338.143302h255.202492v63.800623h-255.202492z" fill="#000000" p-id="55075"></path><path d="M160.301558 491.264798H383.603738v31.900311H160.301558z" fill="#000000" p-id="55076"></path><path d="M147.541433 478.504673h255.202492v63.800623h-255.202492z" fill="#000000" p-id="55077"></path><path d="M811.067913 376.423676l12.760124-57.420561v-6.380062l-6.380062-6.380062-6.380062-6.380063L530.345171 0H90.120872C39.080374 0 0.8 38.280374 0.8 89.320872v842.168225c0 51.040498 38.280374 89.320872 89.320872 89.320872h631.626168c51.040498 0 89.320872-38.280374 95.700935-89.320872v-44.660437l-19.140187-19.140186c-25.520249-6.380062-44.660436 19.140187-44.660436 19.140186v25.52025c0 25.520249-6.380062 44.660436-31.900312 44.660436H109.261059c-25.520249 0-44.660436-25.520249-44.660436-44.660436V127.601246c0-25.520249 6.380062-57.420561 44.660436-63.800623h382.803739v178.641745c0 51.040498 38.280374 89.320872 89.320872 89.320872H766.407477v25.520249c19.140187 6.380062 31.900312 12.760125 44.660436 19.140187zM594.145794 267.962617c-19.140187 0-38.280374-12.760125-38.280373-31.900312V127.601246l153.121495 140.361371H594.145794z" fill="#000000" p-id="55078"></path></svg>