<?xml version="1.0" standalone="no"?><!DOCTYPE svg PUBLIC "-//W3C//DTD SVG 1.1//EN" "http://www.w3.org/Graphics/SVG/1.1/DTD/svg11.dtd"><svg t="1566786766151" class="icon" viewBox="0 0 1024 1024" version="1.1" xmlns="http://www.w3.org/2000/svg" p-id="47436" xmlns:xlink="http://www.w3.org/1999/xlink" width="32" height="32"><defs><style type="text/css"></style></defs><path d="M947.177 420.854a444.654 444.654 0 0 0-25.975-83.667c-11.203-26.42-25.008-51.883-41.08-75.66-15.989-23.651-34.274-45.838-54.386-65.921-20.083-20.098-42.27-38.396-65.92-54.386a446.675 446.675 0 0 0-75.688-41.094c-26.999-11.41-55.132-20.138-83.598-25.934-58.618-12.033-121.081-12.02-179.52-0.015-28.452 5.795-56.6 14.523-83.696 25.963a447.27 447.27 0 0 0-75.672 41.08 449.343 449.343 0 0 0-65.894 54.385c-12.434 12.434-23.861 25.846-34.757 39.667v-113.5c0-11.124-9.02-20.14-20.143-20.14h-14.295c-11.127 0-20.143 9.016-20.143 20.14v150.539c0 2.327 0.415 4.553 1.14 6.632a20.366 20.366 0 0 0-1.14 6.69v13.644c0 11.303 9.163 20.47 20.469 20.47h167.214c11.304 0 20.47-9.167 20.47-20.47v-13.645c0-11.307-9.164-20.472-20.47-20.472h-84.791c8.36-10.251 17.162-20.149 26.504-29.498a392.386 392.386 0 0 1 57.553-47.497 389.853 389.853 0 0 1 66.032-35.839c23.597-9.972 48.135-17.58 72.976-22.642 51.011-10.485 105.646-10.499 156.795 0.014 24.842 5.062 49.379 12.67 72.921 22.615a388.707 388.707 0 0 1 66.032 35.852c20.637 13.955 40.029 29.931 57.567 47.512 17.566 17.538 33.528 36.902 47.498 57.567a390.15 390.15 0 0 1 35.852 66.018c9.93 23.57 17.566 48.12 22.656 72.934a394.554 394.554 0 0 1 7.883 78.453c0 26.322-2.655 52.713-7.883 78.384-5.09 24.815-12.725 49.38-22.656 72.949a391.128 391.128 0 0 1-35.88 66.032c-13.942 20.664-29.904 40.028-47.497 57.567-17.511 17.566-36.875 33.555-57.54 47.525a393.172 393.172 0 0 1-66.004 35.824c-23.514 9.931-48.052 17.566-72.921 22.684-51.316 10.43-105.729 10.43-156.81 0-24.896-5.118-49.448-12.753-72.961-22.684-23.1-9.793-45.326-21.826-66.046-35.824a393.145 393.145 0 0 1-57.567-47.525 390.305 390.305 0 0 1-47.498-57.567 388.548 388.548 0 0 1-35.838-66.004c-9.945-23.57-17.567-48.135-22.643-73.004-5.243-25.534-7.898-51.896-7.898-78.357 0-15.643-12.684-28.327-28.327-28.327s-28.327 12.684-28.327 28.327c0 30.305 3.043 60.486 9.046 89.726 5.822 28.493 14.55 56.654 25.962 83.682a447.346 447.346 0 0 0 41.066 75.659 447.375 447.375 0 0 0 54.386 65.921 450.153 450.153 0 0 0 65.921 54.413 447.873 447.873 0 0 0 75.687 41.052 445.02 445.02 0 0 0 83.668 26.004c29.337 5.975 59.532 9.018 89.753 9.018 30.18 0 60.39-3.043 89.795-9.018a448.178 448.178 0 0 0 83.598-26.004 445.3 445.3 0 0 0 75.66-41.08c23.68-15.988 45.865-34.274 65.92-54.357 20.112-20.084 38.397-42.27 54.359-65.95a443.048 443.048 0 0 0 41.107-75.686 444.178 444.178 0 0 0 25.975-83.654 449.917 449.917 0 0 0 9.046-89.726 450.501 450.501 0 0 0-9.047-89.795z" fill="#000000" p-id="47437"></path><path d="M510.744 596.94H615.04c23.811 0 43.13-19.32 43.13-43.168 0-23.813-19.319-43.134-43.13-43.134h-61.143V355.122c0-23.847-19.318-43.168-43.163-43.168-23.811 0-43.13 19.32-43.13 43.168v197.799c0 0.105 0.03 0.203 0.03 0.306-0.001 0.186-0.055 0.358-0.055 0.544 0 23.849 19.32 43.17 43.165 43.17z" fill="#000000" p-id="47438"></path></svg>