<?xml version="1.0" standalone="no"?><!DOCTYPE svg PUBLIC "-//W3C//DTD SVG 1.1//EN" "http://www.w3.org/Graphics/SVG/1.1/DTD/svg11.dtd"><svg t="1566787384848" class="icon" viewBox="0 0 1024 1024" version="1.1" xmlns="http://www.w3.org/2000/svg" p-id="52688" xmlns:xlink="http://www.w3.org/1999/xlink" width="32" height="32"><defs><style type="text/css"></style></defs><path d="M485.333333 576v-42.666667H405.333333a32 32 0 0 1 0-64h47.232l-71.818666-86.186666a32 32 0 1 1 49.173333-40.96L512 440.672l82.08-98.506667a32 32 0 1 1 49.173333 40.981334L571.434667 469.333333H618.666667a32 32 0 0 1 0 64h-69.333334v42.666667H618.666667a32 32 0 0 1 0 64h-69.333334v42.666667a32 32 0 0 1-64 0v-42.666667H405.333333a32 32 0 0 1 0-64h80zM512 938.666667C276.362667 938.666667 85.333333 747.637333 85.333333 512S276.362667 85.333333 512 85.333333s426.666667 191.029333 426.666667 426.666667-191.029333 426.666667-426.666667 426.666667z m0-64c200.298667 0 362.666667-162.368 362.666667-362.666667S712.298667 149.333333 512 149.333333 149.333333 311.701333 149.333333 512s162.368 362.666667 362.666667 362.666667z" fill="#000000" p-id="52689"></path></svg>