<?xml version="1.0" standalone="no"?><!DOCTYPE svg PUBLIC "-//W3C//DTD SVG 1.1//EN" "http://www.w3.org/Graphics/SVG/1.1/DTD/svg11.dtd"><svg t="1566787347449" class="icon" viewBox="0 0 1024 1024" version="1.1" xmlns="http://www.w3.org/2000/svg" p-id="51713" xmlns:xlink="http://www.w3.org/1999/xlink" width="32" height="32"><defs><style type="text/css"></style></defs><path d="M724.185 457.555c42.603-55.218 88.18-84.222 137.682-84.222C934.36 373.333 992 435.985 992 512s-57.64 138.667-130.133 138.667c-49.502 0-95.079-29.005-137.682-84.222-132.051 168.844-259.317 254.888-383.627 254.888C170.126 821.333 32 682.82 32 512c0-170.82 138.126-309.333 308.558-309.333 124.31 0 251.576 86.044 383.627 254.888zM765.086 512l-0.745 1.011c34.998 50.288 67.91 73.656 97.526 73.656 35.9 0 66.133-32.861 66.133-74.667 0-41.806-30.232-74.667-66.133-74.667-29.616 0-62.528 23.368-97.526 73.656l0.745 1.011zM340.558 266.667C205.512 266.667 96 376.487 96 512c0 135.514 109.512 245.333 244.558 245.333 103.838 0 219.436-80.6 344.8-245.333-125.364-164.733-240.962-245.333-344.8-245.333zM287.153 483.25l-34.5 28.75 34.5 28.75c13.576 11.314 15.41 31.492 4.097 45.07-11.314 13.576-31.492 15.41-45.07 4.096l-64-53.333c-15.351-12.793-15.351-36.373 0-49.166l64-53.333c13.578-11.314 33.756-9.48 45.07 4.097 11.314 13.577 9.48 33.755-4.097 45.069z m138.666-96L391.32 416l34.5 28.75c13.577 11.314 15.411 31.492 4.097 45.07-11.314 13.576-31.492 15.41-45.069 4.096l-64-53.333c-15.352-12.793-15.352-36.373 0-49.166l64-53.333c13.577-11.314 33.755-9.48 45.07 4.097 11.313 13.577 9.48 33.755-4.098 45.069z m0 192L391.32 608l34.5 28.75c13.577 11.314 15.411 31.492 4.097 45.07-11.314 13.576-31.492 15.41-45.069 4.096l-64-53.333c-15.352-12.793-15.352-36.373 0-49.166l64-53.333c13.577-11.314 33.755-9.48 45.07 4.097 11.313 13.577 9.48 33.755-4.098 45.069z" fill="#000000" p-id="51714"></path></svg>