<?xml version="1.0" standalone="no"?><!DOCTYPE svg PUBLIC "-//W3C//DTD SVG 1.1//EN" "http://www.w3.org/Graphics/SVG/1.1/DTD/svg11.dtd"><svg t="1566786457396" class="icon" viewBox="0 0 1024 1024" version="1.1" xmlns="http://www.w3.org/2000/svg" p-id="35013" xmlns:xlink="http://www.w3.org/1999/xlink" width="32" height="32"><defs><style type="text/css"></style></defs><path d="M756.032 193.088l30.72-15.68a108.8 108.8 0 0 1 143.808 42.368l46.08 79.872a108.8 108.8 0 0 1-35.2 145.792l-28.928 18.688a403.968 403.968 0 0 1 0 97.856l28.992 18.688a108.8 108.8 0 0 1 35.2 145.792l-46.144 79.872a108.8 108.8 0 0 1-143.872 42.432l-30.656-15.744a400.32 400.32 0 0 1-84.736 48.96l-1.664 34.368a108.8 108.8 0 0 1-108.672 103.36H468.736a108.8 108.8 0 0 1-108.672-103.36l-1.728-34.368a400.32 400.32 0 0 1-84.672-48.96l-30.72 15.744a108.8 108.8 0 0 1-143.872-42.432l-46.08-79.872a108.8 108.8 0 0 1 35.2-145.792l28.928-18.688a403.968 403.968 0 0 1 0-97.856l-28.928-18.688a108.8 108.8 0 0 1-35.2-145.792l46.08-79.872a108.8 108.8 0 0 1 143.872-42.368l30.72 15.68a400.32 400.32 0 0 1 84.672-48.96l1.728-34.368A108.8 108.8 0 0 1 468.736 6.4h92.16a108.8 108.8 0 0 1 108.736 103.36l1.664 34.368c30.208 12.8 58.624 29.248 84.736 48.96zM592.896 113.6a32 32 0 0 0-32-30.4h-92.16a32 32 0 0 0-32 30.4l-4.288 86.144c-56.832 14.912-107.52 44.864-147.648 85.376l-76.864-39.424a32 32 0 0 0-42.304 12.48l-46.08 79.872a32 32 0 0 0 10.24 42.88l72.512 46.848a324.224 324.224 0 0 0 0 170.624l-72.448 46.784a32 32 0 0 0-10.368 42.88l46.08 79.872a32 32 0 0 0 42.368 12.48l76.8-39.424c40.128 40.512 90.88 70.464 147.712 85.376l4.288 86.144a32 32 0 0 0 32 30.4h92.16a32 32 0 0 0 32-30.4l4.288-86.144c56.832-14.912 107.584-44.8 147.712-85.376l76.8 39.424a32 32 0 0 0 42.368-12.48l46.08-79.872a32 32 0 0 0-10.304-42.88l-72.512-46.784a324.224 324.224 0 0 0 0-170.624l72.512-46.848a32 32 0 0 0 10.304-42.88l-46.08-79.872a32 32 0 0 0-42.304-12.48l-76.864 39.424A323.52 323.52 0 0 0 597.184 199.68l-4.288-86.144z m-75.072 596.608a203.712 203.712 0 1 1 0-407.488 203.712 203.712 0 0 1 0 407.488z m0-76.8a126.912 126.912 0 1 0 0-253.888 126.912 126.912 0 0 0 0 253.888z" fill="#ffffff" p-id="35014"></path></svg>