<?xml version="1.0" standalone="no"?><!DOCTYPE svg PUBLIC "-//W3C//DTD SVG 1.1//EN" "http://www.w3.org/Graphics/SVG/1.1/DTD/svg11.dtd"><svg t="1567064289124" class="icon" viewBox="0 0 1024 1024" version="1.1" xmlns="http://www.w3.org/2000/svg" p-id="2353" xmlns:xlink="http://www.w3.org/1999/xlink" width="32" height="32"><defs><style type="text/css"></style></defs><path d="M765.693 850.704H456.736a5 5 0 1 1 0-10h308.957c2.762 0 5 2.238 5 5s-2.238 5-5 5z" fill="#F4DD50" p-id="2354"></path><path d="M464.6 516.851m-340 0a340 340 0 1 0 680 0 340 340 0 1 0-680 0Z" fill="#F4DD50" p-id="2355"></path><path d="M215.632 772.665a4.983 4.983 0 0 1-3.338-1.279 348.369 348.369 0 0 1-29.542-29.939 5 5 0 0 1 7.531-6.58 338.35 338.35 0 0 0 28.691 29.078 5 5 0 0 1-3.342 8.72zM271.272 813.27a4.982 4.982 0 0 1-2.52-0.685 346.296 346.296 0 0 1-13.259-8.161 5 5 0 1 1 5.434-8.394 335.346 335.346 0 0 0 12.875 7.923 5.002 5.002 0 0 1-2.53 9.317z" p-id="2356"></path><path d="M447.655 859.556c-57.258 0-113.969-14.315-164.002-41.398a5.001 5.001 0 0 1 4.76-8.795c48.575 26.295 103.64 40.193 159.241 40.193 184.72 0 335-150.28 335-335 0-184.719-150.28-335-335-335s-335 150.28-335 335c0 60.621 16.361 120.011 47.313 171.746a5 5 0 1 1-8.581 5.134c-31.881-53.287-48.732-114.452-48.732-176.881 0-92.153 35.886-178.79 101.048-243.951 65.162-65.162 151.799-101.048 243.952-101.048s178.79 35.886 243.952 101.048 101.049 151.798 101.049 243.951c0 92.153-35.887 178.79-101.049 243.952-65.161 65.163-151.798 101.049-243.951 101.049z" p-id="2357"></path><path d="M447.655 514.556m-47 0a47 47 0 1 0 94 0 47 47 0 1 0-94 0Z" fill="#FFFFFF" p-id="2358"></path><path d="M447.655 566.556c-28.673 0-52-23.327-52-52s23.327-52 52-52 52 23.327 52 52-23.327 52-52 52z m0-94c-23.159 0-42 18.841-42 42s18.841 42 42 42 42-18.841 42-42-18.841-42-42-42z" fill="#FFFFFF" p-id="2359"></path><path d="M456.736 339.4m-60.987 0a60.987 60.987 0 1 0 121.974 0 60.987 60.987 0 1 0-121.974 0Z" fill="#C4AB45" p-id="2360"></path><path d="M413.72 262.077c10.135-6.847 22.352-10.845 35.503-10.845 35.07 0 63.5 28.43 63.5 63.5s-28.43 63.5-63.5 63.5-63.5-28.43-63.5-63.5c0-13.413 4.158-25.854 11.256-36.105" fill="#F44444" p-id="2361"></path><path d="M449.223 383.232c-37.771 0-68.5-30.729-68.5-68.5 0-14.008 4.2-27.477 12.145-38.951a5 5 0 0 1 8.222 5.692c-6.782 9.794-10.367 21.295-10.367 33.259 0 32.257 26.243 58.5 58.5 58.5s58.5-26.243 58.5-58.5-26.243-58.5-58.5-58.5c-11.723 0-23.032 3.454-32.704 9.988a5 5 0 0 1-5.598-8.286c11.332-7.656 24.576-11.702 38.302-11.702 37.771 0 68.499 30.729 68.499 68.5s-30.728 68.5-68.499 68.5z" p-id="2362"></path><path d="M656.168 536.294m-60.987 0a60.987 60.987 0 1 0 121.974 0 60.987 60.987 0 1 0-121.974 0Z" fill="#C4AB45" p-id="2363"></path><path d="M644.6 511.626m-63.5 0a63.5 63.5 0 1 0 127 0 63.5 63.5 0 1 0-127 0Z" fill="#F44444" p-id="2364"></path><path d="M644.6 580.126c-37.771 0-68.5-30.729-68.5-68.5s30.729-68.5 68.5-68.5 68.5 30.729 68.5 68.5-30.729 68.5-68.5 68.5z m0-127c-32.257 0-58.5 26.243-58.5 58.5s26.243 58.5 58.5 58.5 58.5-26.243 58.5-58.5-26.244-58.5-58.5-58.5z" p-id="2365"></path><path d="M456.736 728.268m-60.987 0a60.987 60.987 0 1 0 121.974 0 60.987 60.987 0 1 0-121.974 0Z" fill="#C4AB45" p-id="2366"></path><path d="M445.168 703.6m-63.5 0a63.5 63.5 0 1 0 127 0 63.5 63.5 0 1 0-127 0Z" fill="#F44444" p-id="2367"></path><path d="M445.168 772.1c-37.771 0-68.5-30.729-68.5-68.5s30.729-68.5 68.5-68.5 68.5 30.729 68.5 68.5-30.729 68.5-68.5 68.5z m0-127c-32.257 0-58.5 26.243-58.5 58.5s26.243 58.5 58.5 58.5 58.5-26.243 58.5-58.5-26.243-58.5-58.5-58.5z" p-id="2368"></path><path d="M278.317 536.294m-60.987 0a60.987 60.987 0 1 0 121.974 0 60.987 60.987 0 1 0-121.974 0Z" fill="#C4AB45" p-id="2369"></path><path d="M266.749 511.626m-63.5 0a63.5 63.5 0 1 0 127 0 63.5 63.5 0 1 0-127 0Z" fill="#F44444" p-id="2370"></path><path d="M266.749 580.126c-37.771 0-68.5-30.729-68.5-68.5s30.729-68.5 68.5-68.5 68.5 30.729 68.5 68.5-30.729 68.5-68.5 68.5z m0-127c-32.257 0-58.5 26.243-58.5 58.5s26.243 58.5 58.5 58.5 58.5-26.243 58.5-58.5-26.243-58.5-58.5-58.5z" p-id="2371"></path><path d="M765.693 859.556H456.736a5 5 0 1 1 0-10h308.957c2.762 0 5 2.238 5 5s-2.238 5-5 5z" p-id="2372"></path><path d="M714.984 673.727c-21.232 5.847-39.266 15.201-47.134 33.996-1.124-0.973 0.01 5.277-1.176 4.38a69.343 69.343 0 0 0-1.859 4.055c-10.915-9.456-24.838-15.392-39.733-16.755a70.195 70.195 0 0 0-18.5 1.107c-16.53 4.566-31.085 15.071-40.22 29.809-13.595 21.602-13.011 48.058-1.377 70.386 11.805 23.055 34.416 42.038 58.484 56.334 22.514 13.125 46.114 22.161 63.745 26.461 8.695 2.158 15.699 2.988 20.475 2.617 13.09-5.386 41.228-30.552 62.464-63.255 15.007-23.212 26.81-50.274 27.066-76.416 0.241-25.115-11.008-49.068-32.795-62.364-14.234-8.822-31.926-13.762-49.44-10.355z" fill="#F44444" p-id="2373"></path><path d="M764.246 683.326c-14.234-8.822-31.926-13.762-49.44-10.355-1.632 0.449-3.241 0.922-4.832 1.416 16.272-2.08 32.474 2.76 45.693 10.953 21.787 13.296 33.036 37.249 32.794 62.364-0.256 26.142-12.059 53.204-27.066 76.416-19.271 29.678-44.226 53.147-58.461 61.261 1.693 0.09 3.227 0.085 4.577-0.02 13.09-5.386 41.228-30.552 62.464-63.255 15.007-23.212 26.81-50.274 27.066-76.416 0.241-25.114-11.008-49.068-32.795-62.364z" fill="#9B2F2F" p-id="2374"></path><path d="M699.634 888.479c-4.926 0-11.257-0.937-18.695-2.782-20.27-4.943-43.746-14.687-64.401-26.728-19.731-11.72-46.045-31.174-59.451-57.354-12.579-24.142-12.026-51.384 1.486-72.857 13.749-22.179 39.809-35.269 66.345-33.327 14.129 1.293 27.696 6.668 38.605 15.229 9.315-19.693 26.703-33.744 48.175-38.784 11.565-2.715 23.642-2.552 34.917 0.474a2.501 2.501 0 0 1-1.295 4.831c-10.484-2.814-21.714-2.964-32.479-0.437-20.986 4.927-37.777 19.106-46.066 38.902a2.501 2.501 0 0 1-3.942 0.924c-10.526-9.119-24.137-14.856-38.323-16.155-24.673-1.796-48.907 10.363-61.694 30.994-12.565 19.966-13.042 45.349-1.285 67.913 12.871 25.136 38.396 43.967 57.544 55.34 19.941 11.625 43.521 21.416 63.062 26.182 9.734 2.416 17.79 3.217 22.111 2.202 10.844-2.546 40.957-28.361 63.464-63.021 12.009-18.575 26.386-46.683 26.663-75.079 0.245-25.475-11.567-47.981-31.598-60.206a65.562 65.562 0 0 0-6.578-3.572 2.5 2.5 0 0 1 2.131-4.523 70.525 70.525 0 0 1 7.066 3.837c21.532 13.142 34.24 37.262 33.979 64.514-0.29 29.595-15.097 58.615-27.467 77.749-21.731 33.466-53.04 62.007-66.518 65.17-1.619 0.376-3.546 0.564-5.756 0.564z" p-id="2375"></path><path d="M563.817 761.947a2.5 2.5 0 0 1-2.491-2.739 63.557 63.557 0 0 1 2.43-12.356 2.5 2.5 0 0 1 4.785 1.449 58.714 58.714 0 0 0-2.238 11.384 2.5 2.5 0 0 1-2.486 2.262z" fill="#FFFFFF" p-id="2376"></path><path d="M566.149 750.078a2.5 2.5 0 0 1-2.394-3.225 62.7 62.7 0 0 1 3.973-9.953 2.5 2.5 0 0 1 4.468 2.244 57.69 57.69 0 0 0-3.656 9.158 2.498 2.498 0 0 1-2.391 1.776z" fill="#FFFFFF" p-id="2377"></path><path d="M568.498 743.662a2.502 2.502 0 0 1-2.232-3.623l0.117-0.233c1.616-3.219 3.396-6.711 4.337-8.208a2.499 2.499 0 1 1 4.232 2.662c-0.94 1.495-3.236 6.067-4.101 7.789l-0.117 0.234a2.5 2.5 0 0 1-2.236 1.379zM583.176 722.868a2.5 2.5 0 0 1-1.703-4.331 65.873 65.873 0 0 1 5.081-4.267 2.5 2.5 0 1 1 3.018 3.986 61.061 61.061 0 0 0-4.694 3.942 2.493 2.493 0 0 1-1.702 0.67zM593.854 714.865a2.5 2.5 0 0 1-1.282-4.648 66.99 66.99 0 0 1 16.482-7.035 2.501 2.501 0 0 1 1.33 4.82 61.978 61.978 0 0 0-15.252 6.51c-0.402 0.24-0.843 0.353-1.278 0.353z" fill="#FFFFFF" p-id="2378"></path><path d="M899.308 737.806c-18.978-7.857-37.612-11.301-54.169-1.973-0.269-1.36-3.016 3.89-3.374 2.551a63.902 63.902 0 0 0-3.691 1.92c-2.618-13.213-9.467-25.558-19.651-35.092a65.484 65.484 0 0 0-14.253-9.782c-14.783-6.107-31.515-6.712-46.682-1.095-22.381 8.115-37.105 27.924-41.33 51.024-4.516 23.733 1.255 50.659 10.783 74.968 9.055 22.557 21.252 42.727 31.768 55.991 5.165 6.569 9.845 11.192 13.573 13.655 12.721 3.533 47.849 1.125 82.213-10.784 24.343-8.491 48.532-21.651 63.695-40.748 14.563-18.35 20.003-42.425 11.581-64.692-5.425-14.649-15.618-28.419-30.463-35.943z" fill="#F4DD50" p-id="2379"></path><path d="M930.073 773.09c-5.425-14.647-15.619-28.417-30.463-35.941a145.287 145.287 0 0 0-4.368-1.726c13.17 7.79 22.324 20.633 27.362 34.236 8.422 22.267 2.982 46.343-11.581 64.692-15.163 19.097-39.352 32.258-63.694 40.748-31.185 10.808-62.998 13.79-78.125 11.609 1.195 1.036 2.327 1.911 3.381 2.607 12.721 3.533 47.849 1.125 82.213-10.784 24.343-8.491 48.532-21.651 63.695-40.748 14.563-18.351 20.002-42.426 11.58-64.693z" fill="#B7A448" p-id="2380"></path><path d="M787.853 892.692c-8.203 0-14.655-0.861-18.361-2.563-4.568-2.1-10.375-7.522-16.79-15.683-12.1-15.262-23.811-35.896-32.123-56.604-7.82-19.952-16.055-49.378-10.919-76.367 4.578-25.034 20.63-44.819 42.934-52.907 22.884-8.472 49.617-3.175 68.097 13.501 9.634 9.02 16.536 20.698 19.694 33.203 18.139-9.094 38.96-9.447 57.637-0.864 10.097 4.639 18.913 11.693 25.495 20.401a2.5 2.5 0 1 1-3.988 3.016c-6.086-8.052-14.245-14.578-23.595-18.874-18.224-8.372-38.65-7.554-56.039 2.244a2.498 2.498 0 0 1-3.679-1.691c-2.519-12.708-9.233-24.695-18.908-33.753-17.081-15.414-41.82-20.329-62.992-12.487-20.631 7.48-35.48 25.845-39.739 49.13-4.917 25.835 3.079 54.285 10.651 73.605 8.014 19.962 19.755 40.661 31.399 55.351 5.765 7.331 11.213 12.518 14.954 14.237 9.416 4.324 46.312 2.562 82.69-10.047 19.457-6.787 46.109-19.228 62.555-39.94 14.734-18.567 18.922-41.84 11.201-62.253a61.2 61.2 0 0 0-2.789-6.382 2.499 2.499 0 0 1 1.099-3.36 2.498 2.498 0 0 1 3.36 1.099 65.874 65.874 0 0 1 3.012 6.89c8.345 22.061 3.873 47.155-11.967 67.115-17.19 21.651-44.742 34.548-64.829 41.555-24.114 8.355-50.224 12.428-68.06 12.428z" p-id="2381"></path><path d="M738.928 716.818a2.5 2.5 0 0 1-1.818-4.217 59.527 59.527 0 0 1 8.893-7.726 2.498 2.498 0 0 1 3.484 0.598 2.499 2.499 0 0 1-0.598 3.484 54.608 54.608 0 0 0-8.145 7.077 2.483 2.483 0 0 1-1.816 0.784z" fill="#FFFFFF" p-id="2382"></path><path d="M747.448 709.417a2.5 2.5 0 0 1-1.446-4.541 58.598 58.598 0 0 1 8.651-5.066 2.5 2.5 0 0 1 2.148 4.516 53.509 53.509 0 0 0-7.911 4.633 2.496 2.496 0 0 1-1.442 0.458z" fill="#FFFFFF" p-id="2383"></path><path d="M752.854 706.042a2.5 2.5 0 0 1-1.076-4.759l0.189-0.09c3.048-1.451 6.374-3.011 7.939-3.579a2.5 2.5 0 1 1 1.705 4.701c-1.55 0.562-5.869 2.618-7.494 3.393l-0.191 0.09a2.473 2.473 0 0 1-1.072 0.244zM775.563 699.141a2.5 2.5 0 0 1-0.216-4.99 60.613 60.613 0 0 1 6.202-0.231 2.502 2.502 0 0 1 2.466 2.534c-0.02 1.381-1.131 2.495-2.534 2.466a55 55 0 0 0-5.694 0.212 2.852 2.852 0 0 1-0.224 0.009zM803.567 703.47c-0.318 0-0.642-0.062-0.953-0.19a57.626 57.626 0 0 0-14.913-3.932c-1.37-0.171-2.344-1.419-2.174-2.789s1.418-2.338 2.789-2.174a62.671 62.671 0 0 1 16.206 4.273 2.5 2.5 0 1 1-0.955 4.812z" fill="#FFFFFF" p-id="2384"></path><path d="M790.56 662.664c2.255 3.198 4.913 5.906 7.052 7.595 1.282 1.02 2.344 1.615 3.04 1.755 1.759 0.354 7.589-1.334 12.878-4.693 3.499-2.232 6.801-5.191 8.469-8.744 1.602-3.415 1.562-7.388-0.583-10.565-1.464-2.201-3.772-3.809-6.557-4.369a10.284 10.284 0 0 0-9.049 2.527 10.593 10.593 0 0 0-4.379-4.77c-3.399-1.865-7.586-1.716-10.755 0.392-3.206 2.101-4.778 5.75-4.584 9.526 0.173 3.886 2.075 7.89 4.468 11.346z" fill="#F4DD50" p-id="2385"></path><path d="M801.204 673.56a4.28 4.28 0 0 1-0.848-0.075c-0.978-0.196-2.215-0.887-3.679-2.053-2.534-1.999-5.213-4.882-7.344-7.903-2.939-4.245-4.576-8.44-4.74-12.144-0.231-4.479 1.735-8.538 5.26-10.848 1.902-1.266 4.151-1.938 6.494-1.938 2.026 0 4.033 0.514 5.805 1.485a12.317 12.317 0 0 1 4.109 3.826 11.848 11.848 0 0 1 8.893-1.739c3.112 0.627 5.779 2.405 7.511 5.009 2.338 3.465 2.6 7.967 0.692 12.033-2.004 4.268-6.012 7.452-9.021 9.372-4.903 3.115-10.526 4.975-13.132 4.975z m-4.856-31.96a8.703 8.703 0 0 0-4.841 1.441c-2.632 1.724-4.093 4.787-3.917 8.2 0.14 3.148 1.594 6.799 4.203 10.569 1.935 2.743 4.461 5.465 6.749 7.271 1.597 1.272 2.327 1.446 2.405 1.462 0.072 0.015 0.158 0.017 0.257 0.017 1.855 0.001 6.893-1.564 11.522-4.505 2.672-1.704 6.217-4.498 7.915-8.115 1.454-3.101 1.279-6.499-0.469-9.089-1.294-1.945-3.284-3.27-5.609-3.737a8.847 8.847 0 0 0-7.737 2.159 1.506 1.506 0 0 1-1.313 0.368 1.504 1.504 0 0 1-1.068-0.849c-0.771-1.69-2.105-3.144-3.759-4.09a9.069 9.069 0 0 0-4.338-1.102z" p-id="2386"></path><path d="M833.514 655.873c-0.043 4.219 0.576 8.263 1.383 11.088 0.478 1.7 1.033 2.89 1.554 3.451 1.316 1.418 7.479 3.616 14.223 4.01 4.468 0.252 9.221-0.255 12.919-2.313 3.553-1.978 6.022-5.479 6.147-9.609 0.106-2.848-0.899-5.708-2.983-7.953a11.088 11.088 0 0 0-9.508-3.492c0.456-2.293 0.176-4.727-0.825-6.932-1.798-3.774-5.555-6.281-9.655-6.434-4.128-0.182-7.804 2.019-10.013 5.444-2.299 3.507-3.158 8.209-3.242 12.74z" fill="#F44444" p-id="2387"></path><path d="M852.749 675.981c-0.724 0-1.445-0.021-2.159-0.062-7.006-0.409-13.534-2.65-15.238-4.487-0.719-0.774-1.357-2.142-1.899-4.065-0.954-3.342-1.479-7.539-1.438-11.51 0.103-5.543 1.309-10.223 3.487-13.547 2.579-3.997 6.831-6.337 11.334-6.119 4.616 0.171 8.916 3.031 10.943 7.286a13.154 13.154 0 0 1 1.167 6c3.411 0.091 6.564 1.521 8.911 4.049 2.305 2.483 3.507 5.69 3.383 9.029-0.135 4.462-2.721 8.527-6.917 10.864-3.055 1.7-6.949 2.562-11.574 2.562z m-6.457-36.802c-3.257 0-6.351 1.782-8.275 4.768-1.875 2.859-2.911 6.99-3.003 11.954-0.037 3.627 0.458 7.612 1.325 10.648 0.459 1.63 0.939 2.549 1.212 2.843 0.811 0.873 6.281 3.129 13.21 3.533 0.656 0.036 1.321 0.057 1.988 0.057 4.108 0 7.511-0.734 10.114-2.183 3.264-1.818 5.274-4.938 5.378-8.344 0.094-2.549-0.823-4.991-2.584-6.888a9.606 9.606 0 0 0-8.228-3.023 1.499 1.499 0 0 1-1.651-1.783c0.395-1.987 0.14-4.125-0.721-6.019-1.54-3.233-4.82-5.424-8.345-5.555a12.277 12.277 0 0 0-0.42-0.008z" p-id="2388"></path></svg>