<?xml version="1.0" standalone="no"?><!DOCTYPE svg PUBLIC "-//W3C//DTD SVG 1.1//EN" "http://www.w3.org/Graphics/SVG/1.1/DTD/svg11.dtd"><svg t="1566786684037" class="icon" viewBox="0 0 1169 1024" version="1.1" xmlns="http://www.w3.org/2000/svg" p-id="43597" xmlns:xlink="http://www.w3.org/1999/xlink" width="36.53125" height="32"><defs><style type="text/css"></style></defs><path d="M1066.66851 101.025424a351.536839 351.536839 0 0 0-481.992778-10.596996 351.536839 351.536839 0 0 0-481.992779 10.596996 344.226842 344.226842 0 0 0 0 490.031775l403.792815 400.137816a109.62695 109.62695 0 0 0 156.400928 0l403.791814-399.771816a344.226842 344.226842 0 0 0 0-490.397775z m-52.255976 438.506798L610.62072 939.670039a36.542983 36.542983 0 0 1-51.889976 0L154.574929 539.533222a271.874875 271.874875 0 0 1 0-386.982822 277.355873 277.355873 0 0 1 380.404825-6.211997l49.697978 42.75398 49.330977-42.75398a277.355873 277.355873 0 0 1 380.404825 8.038996 271.874875 271.874875 0 0 1 0 385.154823z" p-id="43598" fill="#ffffff"></path><path d="M338.015845 182.880386a155.304929 155.304929 0 0 0-155.303929 155.303929 18.269992 18.269992 0 0 0 36.540983 0 118.761945 118.761945 0 0 1 118.763946-118.761946 18.269992 18.269992 0 0 0 0-36.541983z" p-id="43599" fill="#ffffff"></path></svg>