<?xml version="1.0" standalone="no"?><!DOCTYPE svg PUBLIC "-//W3C//DTD SVG 1.1//EN" "http://www.w3.org/Graphics/SVG/1.1/DTD/svg11.dtd"><svg t="1566786144490" class="icon" viewBox="0 0 1024 1024" version="1.1" xmlns="http://www.w3.org/2000/svg" p-id="31158" xmlns:xlink="http://www.w3.org/1999/xlink" width="16" height="16"><defs><style type="text/css"></style></defs><path d="M11.568 203.89l348.63-0.384c5.945-0.348 10.226-2.909 11.696-8.848l32.081-105.169c13.33-27.19 33.556-41.922 63.911-38.538l228.735-1.341-0.098 44.837-216.844 0.701c-15.086 1.951-25.214 9.488-30.355 22.653l-21.22 71.552c-2.464 10.226 0.128 14.891 7.891 14.025l72.924 0.037-40.422 681.089H57.1L11.568 203.89z m106.217 770.501l815.113-3.964c59.405-6.36 87.62 6.488 91.101-63.43L0 910.962c1.122 63.972 50.008 62.246 117.785 63.429z m472.203-90.851l322.331-2.073c59.435-6.391 70.521-38.026 74.04-107.944l-471.245 0.543c-2.556 68.637 9.207 100.467 74.874 109.474z m-23.775-271.072c-37.258 2.653-61.161 21.348-63.625 65.734 3.134 43.045 28.507 59.722 63.911 64.484 17.671-1.22 35.184-8.214 48.063-20.226 14.635 12.11 30.385 19.172 49.85 20.483 18.342 0.091 33.233-4.701 43.203-16.617 9.074 10.671 23.739 16.165 44.477 16.007 20.867-0.031 37.55-6.714 46.654-15.818 11.507 11.598 26.782 16.714 44.581 17.415 17.476-2.464 31.44-8.787 42.624-16.617 14.641 13.58 32.087 17.672 51.258 15.885 41.477-8.982 59.057-33.843 56.752-71.966-6.134-41.124-28.727-57.295-60.905-58.795-18.056-2.177-34.19 5.14-49.276 17.763-12.11-13-27.416-18.306-45.984-15.909-14.732-3.104-28.885 2.909-42.66 15.208-9.074-10.128-22.781-15.147-40.227-16.165-14.257-0.707-31.129 3.671-43.526 15.653-1.531 1.47-2.97 1.085-4.122 0.415-12.781-13.964-29.202-17.507-47.74-17.415-18.056-0.189-32.081 7.732-43.301 21.22-14.981-16.233-31.665-23.166-50.007-20.739zM618.3 468.449c-71.198 7.604-105.517 45.789-102.962 114.432h470.026c-3.512-69.924-34.959-108.041-94.394-114.432H618.3zM61.832 257.477l6.488 128.749c2.079 6.616 6.165 10.324 13.391 9.714l227.455-2.586c5.275-0.067 8.598-2.653 10.257-7.317l34.099-125.969c-0.701-4.665-2.75-7.83-7.226-8.183l-277.78 0.323c-3.995 0.062-6.233 1.848-6.684 5.269zM454.69 385.97l6.488-125.615c-2.043-6.586-3.897-8.598-9.842-8.311l-33.812-0.671c-5.336 0.134-8.628 2.72-10.287 7.384L372.15 383.83c0.701 4.732 2.714 7.83 7.189 8.214l68.643-0.738c4.025-0.061 6.226-1.884 6.708-5.336z" p-id="31159" fill="#ea9518"></path></svg>