<?xml version="1.0" standalone="no"?><!DOCTYPE svg PUBLIC "-//W3C//DTD SVG 1.1//EN" "http://www.w3.org/Graphics/SVG/1.1/DTD/svg11.dtd"><svg t="1566786200099" class="icon" viewBox="0 0 1024 1024" version="1.1" xmlns="http://www.w3.org/2000/svg" p-id="33271" xmlns:xlink="http://www.w3.org/1999/xlink" width="16" height="16"><defs><style type="text/css"></style></defs><path d="M608.463 96.283a47.447 47.447 0 0 0-0.463 6.636v281.07C581.259 363.901 548.02 352 512 352c-88.366 0-160 71.634-160 160s71.634 160 160 160 160-71.634 160-160c0-1.5-0.02-2.994-0.062-4.484 0.041-0.805 0.062-1.617 0.062-2.435V116.348C828.364 179.642 938.667 332.94 938.667 512c0 235.641-191.026 426.667-426.667 426.667C276.359 938.667 85.333 747.64 85.333 512 85.333 276.359 276.36 85.333 512 85.333c33.175 0 65.466 3.787 96.463 10.95z" fill="#82529d" p-id="33272"></path></svg>