<?xml version="1.0" standalone="no"?><!DOCTYPE svg PUBLIC "-//W3C//DTD SVG 1.1//EN" "http://www.w3.org/Graphics/SVG/1.1/DTD/svg11.dtd"><svg t="1566786481530" class="icon" viewBox="0 0 1024 1024" version="1.1" xmlns="http://www.w3.org/2000/svg" p-id="35829" xmlns:xlink="http://www.w3.org/1999/xlink" width="32" height="32"><defs><style type="text/css"></style></defs><path d="M921.6 844.8 102.4 844.8c-28.2624 0-51.2-22.9376-51.2-51.2l0-102.4 0-25.6 0-25.6 0 0c0-14.1312 11.4688-25.6 25.6-25.6l0 0c0-1.2032-0.5376-2.2528-0.6912-3.4048C120.5504 599.8336 153.6 559.9232 153.6 512c0-47.9232-33.0496-87.808-77.4912-98.9952C76.2624 411.8528 76.8 410.8032 76.8 409.6c-14.1312 0-25.6-11.4688-25.6-25.6l0-25.6 0-25.6L51.2 230.4c0-28.288 22.9376-51.2 51.2-51.2l819.2 0c28.2624 0 51.2 22.912 51.2 51.2l0 102.4 0 25.6 0 25.6 0 0c0 14.1312-11.4432 25.6-25.6 25.6 0 1.2032 0.5376 2.2528 0.6912 3.4048C903.4496 424.192 870.4 464.0768 870.4 512c0 47.9232 33.0496 87.8336 77.4912 98.9952C947.7376 612.1472 947.2 613.1968 947.2 614.4c14.1312 0 25.6 11.4688 25.6 25.6l0 0 0 25.6 0 25.6 0 102.4C972.8 821.8624 949.8624 844.8 921.6 844.8L921.6 844.8zM921.6 656.6656c-59.6224-21.0944-102.4-77.824-102.4-144.6656s42.7776-123.5712 102.4-144.6656L921.6 256c0-14.1312-11.4688-25.6-25.6-25.6L128 230.4c-14.1312 0-25.6 11.4688-25.6 25.6l0 111.3344c59.6224 21.12 102.4 77.824 102.4 144.6656s-42.7776 123.5712-102.4 144.6656l0 0L102.4 768c0 14.1568 11.4688 25.6 25.6 25.6l768 0c14.1312 0 25.6-11.4432 25.6-25.6L921.6 656.6656 921.6 656.6656zM627.2 614.4 537.6 614.4l0 64c0 7.0656-5.7344 12.8-12.8 12.8l-25.6 0c-7.0656 0-12.8-5.7344-12.8-12.8L486.4 614.4l-89.6 0c-7.0656 0-12.8-5.7344-12.8-12.8l0-25.6c0-7.0656 5.7344-12.8 12.8-12.8L486.4 563.2l0-51.2-89.6 0c-7.0656 0-12.8-5.7344-12.8-12.8l0-25.6c0-7.0656 5.7344-12.8 12.8-12.8l70.5536 0-78.848-86.2464c-4.5056-4.9152-4.5056-12.9024 0-17.8176l16.2816-17.8176c4.5056-4.9152 11.8016-4.9152 16.3072 0l90.24 98.688 91.2896-99.8656c4.5312-4.9664 11.8784-4.9664 16.4352 0l16.4352 17.9456c4.5312 4.9664 4.5312 13.0048 0 17.9712L555.8272 460.8 627.2 460.8c7.0656 0 12.8 5.7344 12.8 12.8l0 25.6c0 7.0656-5.7344 12.8-12.8 12.8L537.6 512l0 51.2 89.6 0c7.0656 0 12.8 5.7344 12.8 12.8l0 25.6C640 608.6656 634.2656 614.4 627.2 614.4L627.2 614.4zM627.2 614.4" p-id="35830" fill="#000000"></path></svg>