<?xml version="1.0" standalone="no"?><!DOCTYPE svg PUBLIC "-//W3C//DTD SVG 1.1//EN" "http://www.w3.org/Graphics/SVG/1.1/DTD/svg11.dtd"><svg t="1567068820636" class="icon" viewBox="0 0 1024 1024" version="1.1" xmlns="http://www.w3.org/2000/svg" p-id="7762" xmlns:xlink="http://www.w3.org/1999/xlink" width="32" height="32"><defs><style type="text/css"></style></defs><path d="M720.583111 824.888889c-13.397333 10.296889-27.448889 19.825778-42.097778 28.444444H938.666667a28.444444 28.444444 0 0 1 0 56.888889H512a28.444444 28.444444 0 0 1-8.760889-1.365333c-11.178667 0.910222-22.471111 1.365333-33.905778 1.365333C241.550222 910.222222 56.888889 725.560889 56.888889 497.777778S241.550222 85.333333 469.333333 85.333333 881.777778 269.994667 881.777778 497.777778c0 103.367111-38.030222 197.831111-100.835556 270.222222H938.666667a28.444444 28.444444 0 0 1 0 56.888889h-218.083556zM469.333333 853.333333C665.713778 853.333333 824.888889 694.158222 824.888889 497.777778S665.713778 142.222222 469.333333 142.222222 113.777778 301.397333 113.777778 497.777778 272.952889 853.333333 469.333333 853.333333z m0-426.666666a128 128 0 1 1 0-256 128 128 0 0 1 0 256z m0 398.222222a128 128 0 1 1 0-256 128 128 0 0 1 0 256z m-199.111111-199.111111a128 128 0 1 1 0-256 128 128 0 0 1 0 256z m398.222222 0a128 128 0 1 1 0-256 128 128 0 0 1 0 256z m-199.111111-256a71.111111 71.111111 0 1 0 0-142.222222 71.111111 71.111111 0 0 0 0 142.222222z m0 398.222222a71.111111 71.111111 0 1 0 0-142.222222 71.111111 71.111111 0 0 0 0 142.222222z m-199.111111-199.111111a71.111111 71.111111 0 1 0 0-142.222222 71.111111 71.111111 0 0 0 0 142.222222z m398.222222 0a71.111111 71.111111 0 1 0 0-142.222222 71.111111 71.111111 0 0 0 0 142.222222z" p-id="7763" fill="#d3217b"></path></svg>