<?xml version="1.0" standalone="no"?><!DOCTYPE svg PUBLIC "-//W3C//DTD SVG 1.1//EN" "http://www.w3.org/Graphics/SVG/1.1/DTD/svg11.dtd"><svg t="1566799989512" class="icon" viewBox="0 0 1024 1024" version="1.1" xmlns="http://www.w3.org/2000/svg" p-id="69585" width="128" height="128" xmlns:xlink="http://www.w3.org/1999/xlink"><defs><style type="text/css"></style></defs><path d="M548.4 756h-75.8c-8.2 0-17.9 3-17.9 17.3s9.7 17.3 17.9 17.3h75.8c8.2 0 17.9-3 17.9-17.3s-9.7-17.3-17.9-17.3z" fill="#a4579d" p-id="69586"></path><path d="M867.6 923.7h-60.6v-20.9c0-68.5-17.2-129.8-52.5-187.4-30.4-49.6-69-87.6-100-118.1l-1.1-1-0.9-1.2c-8.5-11.2-18.6-21.8-27.5-31.1-18.1-19-32.4-34-32.4-52 0-14 11.3-24.3 22.4-32.5 7.9-5.8 18-12 27.2-16.7 35.5-26.3 72.8-56.3 104.5-105.7 18.4-28.7 32.7-61.1 42.6-96.3 11.7-41.6 17.6-88.5 17.6-139.5v-20.9H867.5c8.6 0 18.7-3.1 18.7-18.1 0-15-10.2-18.1-18.7-18.1H153.4c-8.6 0-18.7 3.1-18.7 18.1 0 15 10.2 18.1 18.7 18.1h60.6v20.9c0 51 5.9 98 17.6 139.5 9.9 35.3 24.2 67.7 42.6 96.3 31.7 49.4 68.9 79.4 104.5 105.7 9.3 4.7 19.3 10.9 27.2 16.7 11.1 8.2 22.4 18.4 22.4 32.5 0 20.9-19.1 38.2-43.3 60.2-6.1 5.5-12.4 11.3-18.1 16.8-3.8 4.2-7.6 8.4-11.6 12.8-31.2 34.2-66.5 73-94.2 121.8-31.7 55.9-47.1 114.6-47.1 179.2v20.9h-60.6c-8.6 0-18.7 3.1-18.7 18.1 0 15 10.2 18.1 18.7 18.1h714.2c8.6 0 18.7-3.1 18.7-18.1 0.1-14.9-10.1-18.1-18.7-18.1z m-98.1 0H251.5v-20.9c0-58.6 14.3-112.3 43.8-164.1 25-44 56.6-79.1 84.4-110 4.1-4.5 8.1-9 12-13.4l1-1c5.1-5.1 10.3-10 15.2-14.7 32.3-31 57.9-55.6 57.9-87.6 0-33.5-20.6-51.8-61.1-75.8l-0.9-0.5-0.9-0.6c-36.7-27.1-72-55.2-100.6-101.6-34.2-55.3-50.8-124.7-50.8-212.3v-20.9h518v20.9c0 87.6-16.6 157-50.7 212.3-28.6 46.3-63.9 74.5-100.6 101.6l-0.9 0.6-0.9 0.5c-51.7 30.5-61.1 49.5-61.1 75.8 0 30.3 37.2 66.9 73.1 102.3l1 1c3.9 4.4 7.9 8.8 12 13.4 27.8 30.9 59.4 66 84.4 110 29.5 51.8 43.8 105.5 43.8 164.1v20.9z" fill="#a4579d" p-id="69587"></path></svg>