<?xml version="1.0" standalone="no"?><!DOCTYPE svg PUBLIC "-//W3C//DTD SVG 1.1//EN" "http://www.w3.org/Graphics/SVG/1.1/DTD/svg11.dtd"><svg t="1566809547677" class="icon" viewBox="0 0 1024 1024" version="1.1" xmlns="http://www.w3.org/2000/svg" p-id="71474" xmlns:xlink="http://www.w3.org/1999/xlink" width="32" height="32"><defs><style type="text/css"></style></defs><path d="M766.311454 405.615738c-58.611951 0-106.138334 47.773488-106.138334 106.384262 0 58.851995 47.526384 106.383085 106.138334 106.383085 58.606067 0 106.138334-47.532267 106.138335-106.383085 0-58.611951-47.532267-106.384262-106.138335-106.384262M511.436367 660.490826c-58.611951 0-106.138334 47.526384-106.138334 106.138334s47.526384 106.138334 106.138334 106.138334c58.606067 0 106.138334-47.526384 106.138334-106.138334s-47.532267-106.138334-106.138334-106.138334M469.077992 512c0 23.396065 18.962309 42.11127 42.358375 42.11127 23.64317 0 42.600772-18.715205 42.600772-42.11127 0-23.150138-18.962309-42.112447-42.600772-42.112447-23.396065 0-42.358375 18.962309-42.358375 42.112447m42.358375-360.521566c-58.611951 0-106.138334 47.285163-106.138334 105.89123 0 58.611951 47.526384 106.138334 106.138334 106.138334 58.606067 0 106.138334-47.526384 106.138334-106.138334-0.001177-58.606067-47.532267-105.89123-106.138334-105.89123M256.560103 405.615738c-58.611951 0-106.137158 47.773488-106.137158 106.384262 0 58.851995 47.525207 106.383085 106.137158 106.383085s106.138334-47.532267 106.138334-106.383085c0-58.611951-47.526384-106.384262-106.138334-106.384262m529.698547 510.24203h112.29123c20.440228 0 37.185659 18.716382 37.18566 42.112447 0 23.391359-16.745431 42.353668-37.18566 42.353668H526.949807c-1.477919 0-3.202942-0.247104-4.680861-0.493032-3.444163 0-6.893032 0.493032-10.587828 0.493032-269.649568 0-488.32506-218.675492-488.32506-488.32506 0-269.650745 218.675492-488.32506 488.32506-488.325059s488.32506 218.674315 488.32506 488.325059c0.001177 167.947343-84.710866 315.946314-213.747528 403.858945z m0 0" p-id="71475" fill="#bfbfbf"></path></svg>